<mxfile host="app.diagrams.net" modified="2021-12-16T19:29:27.683Z" agent="5.0 (Macintosh; Intel Mac OS X 10_15_7) AppleWebKit/537.36 (KHTML, like Gecko) Chrome/96.0.4664.110 Safari/537.36" etag="wW1ZjsbQJ8KWhCF_s7MS" version="15.9.6" type="github">
  <diagram id="OmaxzzgfJYrCwUw-TMpX" name="Page-1">
    <mxGraphModel dx="1181" dy="670" grid="1" gridSize="10" guides="1" tooltips="1" connect="1" arrows="1" fold="1" page="1" pageScale="1" pageWidth="827" pageHeight="1169" math="0" shadow="0">
      <root>
        <mxCell id="0" />
        <mxCell id="1" parent="0" />
        <mxCell id="wx-GVxnFSdWWhYxmnE0B-1" value="" style="whiteSpace=wrap;html=1;aspect=fixed;" parent="1" vertex="1">
          <mxGeometry x="140" y="190" width="230" height="230" as="geometry" />
        </mxCell>
        <mxCell id="wx-GVxnFSdWWhYxmnE0B-2" value="" style="whiteSpace=wrap;html=1;aspect=fixed;" parent="1" vertex="1">
          <mxGeometry x="470" y="190" width="230" height="230" as="geometry" />
        </mxCell>
        <mxCell id="k42lq3PwuF23UWFyw7Dl-1" value="" style="shape=flexArrow;endArrow=classic;html=1;rounded=0;entryX=0;entryY=0.75;entryDx=0;entryDy=0;exitX=1;exitY=0.75;exitDx=0;exitDy=0;" edge="1" parent="1" source="wx-GVxnFSdWWhYxmnE0B-1" target="wx-GVxnFSdWWhYxmnE0B-2">
          <mxGeometry width="50" height="50" relative="1" as="geometry">
            <mxPoint x="360" y="340" as="sourcePoint" />
            <mxPoint x="410" y="290" as="targetPoint" />
          </mxGeometry>
        </mxCell>
      </root>
    </mxGraphModel>
  </diagram>
</mxfile>
